<svg width="45" height="45" viewBox="0 0 45 45" fill="none" xmlns="http://www.w3.org/2000/svg">
<rect x="9.98999" y="6.61523" width="23.085" height="31.9275" fill="black"/>
<path d="M22.5 45C10.0732 45 0 34.9267 0 22.5C0 10.0732 10.0732 0 22.5 0C34.9267 0 45 10.0732 45 22.5C45 34.9267 34.9267 45 22.5 45ZM20.934 37.0485C22.3515 37.0485 23.931 36.4005 25.875 33.768L27.9247 31.023C27.9847 30.9428 28.028 30.8513 28.052 30.7541C28.0761 30.6569 28.0806 30.5559 28.065 30.457C28.0495 30.358 28.0144 30.2632 27.9617 30.178C27.909 30.0928 27.8399 30.0191 27.7582 29.961C27.5856 29.8391 27.374 29.7855 27.1642 29.8104C26.9544 29.8353 26.7612 29.9371 26.622 30.096L23.3033 33.8737C23.2269 33.9606 23.1248 34.0207 23.0119 34.0454C22.899 34.0701 22.7811 34.058 22.6755 34.011C22.573 33.966 22.4897 33.8862 22.4403 33.7858C22.3909 33.6853 22.3786 33.5707 22.4055 33.462L26.586 16.7085C26.6322 16.5259 26.6317 16.3346 26.5846 16.1523C26.5375 15.9699 26.4453 15.8023 26.3164 15.665C26.1876 15.5276 26.0262 15.4248 25.8473 15.3662C25.6683 15.3075 25.4774 15.2948 25.2922 15.3292L17.7548 16.7085C17.6066 16.7357 17.4693 16.8049 17.3592 16.9078C17.2491 17.0107 17.1709 17.143 17.1337 17.289L16.9403 18.0405C16.9189 18.1237 16.917 18.2107 16.9345 18.2948C16.9521 18.3789 16.9886 18.4579 17.0414 18.5256C17.0942 18.5934 17.1618 18.6482 17.239 18.6858C17.3163 18.7234 17.4011 18.7428 17.487 18.7425H21.3795L18.0585 32.067C17.937 32.5935 17.7345 33.4845 17.7345 34.1325C17.7345 35.631 18.6255 37.0485 20.934 37.0485ZM25.0515 13.3425C26.631 13.3425 27.846 12.411 28.17 10.9935C28.251 10.6695 28.2915 10.305 28.2915 10.062C28.2915 8.928 27.4005 7.875 25.74 7.875C24.1605 7.875 22.9455 8.8065 22.6215 10.224C22.5463 10.529 22.5056 10.8414 22.5 11.1555C22.5 12.2895 23.391 13.3425 25.0515 13.3425Z" fill="#A8A8A8"/>
</svg>
